<?xml version="1.0" encoding="UTF-8" standalone="no"?><!DOCTYPE svg PUBLIC "-//W3C//DTD SVG 1.1//EN" "http://www.w3.org/Graphics/SVG/1.1/DTD/svg11.dtd"><!-- Generated by graphviz version 2.40.1 (20161225.0304)
 --><!-- Title: G Pages: 1 --><svg xmlns="http://www.w3.org/2000/svg" xmlns:xlink="http://www.w3.org/1999/xlink" width="483pt" height="260pt" viewBox="0.00 0.00 482.51 260.00">
<g id="graph0" class="graph" transform="scale(1 1) rotate(0) translate(4 256)">
<title>G</title>
<polygon fill="#ffffff" stroke="transparent" points="-4,4 -4,-256 478.5113,-256 478.5113,4 -4,4"/>
<!-- :app -->
<g id="node1" class="node">
<title>:app</title>
<ellipse fill="none" stroke="#000000" cx="268.1698" cy="-234" rx="27.8286" ry="18"/>
<text text-anchor="middle" x="268.1698" y="-229.8" font-family="Times,serif" font-size="14.00" fill="#000000">:app</text>
</g>
<!-- :features:home -->
<g id="node2" class="node">
<title>:features:home</title>
<ellipse fill="none" stroke="#000000" cx="268.1698" cy="-162" rx="68.3343" ry="18"/>
<text text-anchor="middle" x="268.1698" y="-157.8" font-family="Times,serif" font-size="14.00" fill="#000000">:features:home</text>
</g>
<!-- :app&#45;&gt;:features:home -->
<g id="edge1" class="edge">
<title>:app-&gt;:features:home</title>
<path fill="none" stroke="#000000" d="M268.1698,-215.8314C268.1698,-208.131 268.1698,-198.9743 268.1698,-190.4166"/>
<polygon fill="#000000" stroke="#000000" points="271.6699,-190.4132 268.1698,-180.4133 264.6699,-190.4133 271.6699,-190.4132"/>
</g>
<!-- :features:details -->
<g id="node3" class="node">
<title>:features:details</title>
<ellipse fill="none" stroke="#000000" cx="72.1698" cy="-162" rx="72.34" ry="18"/>
<text text-anchor="middle" x="72.1698" y="-157.8" font-family="Times,serif" font-size="14.00" fill="#000000">:features:details</text>
</g>
<!-- :app&#45;&gt;:features:details -->
<g id="edge2" class="edge">
<title>:app-&gt;:features:details</title>
<path fill="none" stroke="#000000" d="M243.7426,-225.0267C213.5644,-213.9409 161.4509,-194.7971 122.556,-180.5092"/>
<polygon fill="#000000" stroke="#000000" points="123.5672,-177.1521 112.9736,-176.9892 121.1534,-183.7227 123.5672,-177.1521"/>
</g>
<!-- :libraries:design -->
<g id="node4" class="node">
<title>:libraries:design</title>
<ellipse fill="none" stroke="#000000" cx="146.1698" cy="-90" rx="73.0074" ry="18"/>
<text text-anchor="middle" x="146.1698" y="-85.8" font-family="Times,serif" font-size="14.00" fill="#000000">:libraries:design</text>
</g>
<!-- :app&#45;&gt;:libraries:design -->
<g id="edge3" class="edge">
<title>:app-&gt;:libraries:design</title>
<path fill="none" stroke="#000000" d="M246.3584,-222.6589C229.5903,-213.0808 206.7343,-198.0561 191.1698,-180 175.3138,-161.6057 163.4087,-136.6494 155.8392,-117.6819"/>
<polygon fill="#000000" stroke="#000000" points="159.0198,-116.1999 152.1803,-108.1084 152.4811,-118.699 159.0198,-116.1999"/>
</g>
<!-- :libraries:arch -->
<g id="node5" class="node">
<title>:libraries:arch</title>
<ellipse fill="none" stroke="#000000" cx="196.1698" cy="-18" rx="64.8176" ry="18"/>
<text text-anchor="middle" x="196.1698" y="-13.8" font-family="Times,serif" font-size="14.00" fill="#000000">:libraries:arch</text>
</g>
<!-- :app&#45;&gt;:libraries:arch -->
<g id="edge4" class="edge">
<title>:app-&gt;:libraries:arch</title>
<path fill="none" stroke="#000000" d="M293.5566,-226.0408C358.1163,-204.5391 519.5147,-142.1561 462.1698,-72 438.2221,-42.7023 339.6325,-28.9117 269.4793,-22.7022"/>
<polygon fill="#000000" stroke="#000000" points="269.6081,-19.2006 259.3474,-21.8401 269.0146,-26.1754 269.6081,-19.2006"/>
</g>
<!-- :libraries:navigation -->
<g id="node6" class="node">
<title>:libraries:navigation</title>
<ellipse fill="none" stroke="#000000" cx="364.1698" cy="-90" rx="88.6178" ry="18"/>
<text text-anchor="middle" x="364.1698" y="-85.8" font-family="Times,serif" font-size="14.00" fill="#000000">:libraries:navigation</text>
</g>
<!-- :app&#45;&gt;:libraries:navigation -->
<g id="edge5" class="edge">
<title>:app-&gt;:libraries:navigation</title>
<path fill="none" stroke="#000000" d="M291.3261,-223.6761C308.836,-214.659 332.0335,-199.8925 345.1698,-180 357.2904,-161.6456 361.8686,-136.989 363.5118,-118.1249"/>
<polygon fill="#000000" stroke="#000000" points="367.0107,-118.2537 364.1636,-108.0486 360.0253,-117.8018 367.0107,-118.2537"/>
</g>
<!-- :features:home&#45;&gt;:libraries:design -->
<g id="edge6" class="edge">
<title>:features:home-&gt;:libraries:design</title>
<path fill="none" stroke="#000000" d="M240.1805,-145.4817C223.2529,-135.4916 201.4718,-122.6373 183.1382,-111.8174"/>
<polygon fill="#000000" stroke="#000000" points="184.8423,-108.7591 174.4513,-106.6907 181.2845,-114.7875 184.8423,-108.7591"/>
</g>
<!-- :features:home&#45;&gt;:libraries:arch -->
<g id="edge7" class="edge">
<title>:features:home-&gt;:libraries:arch</title>
<path fill="none" stroke="#000000" d="M260.8083,-143.7789C253.2077,-125.3882 240.7203,-96.3093 228.1698,-72 223.5439,-63.0401 218.0814,-53.5024 212.9915,-44.9752"/>
<polygon fill="#000000" stroke="#000000" points="215.8467,-42.9334 207.6717,-36.194 209.8597,-46.5605 215.8467,-42.9334"/>
</g>
<!-- :features:home&#45;&gt;:libraries:navigation -->
<g id="edge8" class="edge">
<title>:features:home-&gt;:libraries:navigation</title>
<path fill="none" stroke="#000000" d="M290.9205,-144.937C303.4097,-135.57 319.0872,-123.8119 332.7304,-113.5796"/>
<polygon fill="#000000" stroke="#000000" points="335.0156,-116.2407 340.9156,-107.4407 330.8155,-110.6407 335.0156,-116.2407"/>
</g>
<!-- :features:details&#45;&gt;:libraries:design -->
<g id="edge9" class="edge">
<title>:features:details-&gt;:libraries:design</title>
<path fill="none" stroke="#000000" d="M90.4619,-144.2022C99.6024,-135.3088 110.8099,-124.4042 120.7698,-114.7135"/>
<polygon fill="#000000" stroke="#000000" points="123.3615,-117.0752 128.0881,-107.593 118.48,-112.0581 123.3615,-117.0752"/>
</g>
<!-- :features:details&#45;&gt;:libraries:arch -->
<g id="edge10" class="edge">
<title>:features:details-&gt;:libraries:arch</title>
<path fill="none" stroke="#000000" d="M64.257,-143.7594C57.1465,-124.2879 49.8304,-93.3591 64.1698,-72 78.9121,-50.0408 104.3342,-37.0053 128.9566,-29.2697"/>
<polygon fill="#000000" stroke="#000000" points="130.0549,-32.5956 138.6929,-26.4608 128.1146,-25.8699 130.0549,-32.5956"/>
</g>
<!-- :features:details&#45;&gt;:libraries:navigation -->
<g id="edge11" class="edge">
<title>:features:details-&gt;:libraries:navigation</title>
<path fill="none" stroke="#000000" d="M123.7014,-149.2936C172.1523,-137.3468 244.9277,-119.4022 297.7234,-106.384"/>
<polygon fill="#000000" stroke="#000000" points="298.7993,-109.7237 307.6705,-103.9313 297.1234,-102.9272 298.7993,-109.7237"/>
</g>
<!-- :libraries:design&#45;&gt;:libraries:arch -->
<g id="edge12" class="edge">
<title>:libraries:design-&gt;:libraries:arch</title>
<path fill="none" stroke="#000000" d="M158.5293,-72.2022C164.4188,-63.7214 171.5785,-53.4115 178.0659,-44.0696"/>
<polygon fill="#000000" stroke="#000000" points="180.9499,-46.0527 183.7791,-35.8425 175.2003,-42.0599 180.9499,-46.0527"/>
</g>
</g>
</svg>